#!OML:ASF H:\Male1\Project 1\Capture day 1\Session 1\Male1.ASF
:FULLY-SPECIFIED
:DEGREES
166
root -5.61306 13.3554 4.60686 165.039 -74.7792 -133.388
lowerback 48.6594 4.02308 -6.1104
upperback 16.6221 -1.71457 -3.10027
thorax -1.73996 -2.10775 0.192614
lowerneck 0.115496 10.7594 9.015
upperneck -19.3442 13.3802 -13.7659
head -4.15042 6.86654 -6.05976
rclavicle 1.145e-013 1.18476e-013
rhumerus -28.4243 9.40434 -88.4322
rradius 73.5966
rwrist -48.7482
rhand -29.9595 12.9541
rfingers 7.12502
rthumb -3.2783 -17.0004
lclavicle 1.145e-013 1.18476e-013
lhumerus 59.3721 9.79544 62.9486
lradius 33.6814
lwrist 37.0246
lhand -30.6134 37.1391
lfingers 7.12502
lthumb -3.90982 67.0829
rfemur -74.7142 8.12439 37.5299
rtibia 64.3334
rfoot -20.4024 -12.5316
rtoes -19.9221
lfemur -78.9349 8.14491 -13.3926
ltibia 78.1533
lfoot -28.4297 13.0761
ltoes -4.70665
167
root -5.6081 13.3538 4.59547 165.099 -74.8101 -133.531
lowerback 48.6437 4.02717 -5.81166
upperback 16.7081 -1.59383 -3.11485
thorax -1.66075 -2.04227 -0.00541678
lowerneck -0.460395 10.6091 8.64316
upperneck -19.2968 13.1658 -13.2098
head -4.14041 6.72189 -5.80126
rclavicle 9.85972e-014 3.97569e-016
rhumerus -28.1373 8.81548 -88.3998
rradius 73.5328
rwrist -48.5291
rhand -29.8211 13.084
rfingers 7.12502
rthumb -3.1447 -16.8726
lclavicle 9.85972e-014 3.97569e-016
lhumerus 59.7548 9.36938 62.3963
lradius 32.9472
lwrist 37.4862
lhand -31.1948 37.4695
lfingers 7.12502
lthumb -4.47126 67.4023
rfemur -74.6591 8.14477 37.4997
rtibia 64.3078
rfoot -20.328 -12.5927
rtoes -20.0925
lfemur -78.8631 8.20398 -13.4285
ltibia 78.1473
lfoot -28.4473 12.967
ltoes -4.56146
168
root -5.60284 13.3533 4.5856 164.992 -74.8416 -133.504
lowerback 48.6096 3.98249 -5.62989
upperback 16.7435 -1.56474 -3.10661
thorax -1.62645 -2.0226 -0.0905602
lowerneck -0.657772 10.5583 8.40401
upperneck -19.4325 13.0988 -12.8673
head -4.2032 6.66868 -5.65934
rclavicle -1.90833e-014 2.78299e-014
rhumerus -27.9103 8.52086 -88.4135
rradius 73.4648
rwrist -48.3494
rhand -29.7027 13.236
rfingers 7.12502
rthumb -3.03036 -16.7222
lclavicle -1.90833e-014 2.78299e-014
lhumerus 59.7825 9.11797 61.7047
lradius 32.4343
lwrist 38.0597
lhand -31.8739 37.9801
lfingers 7.12502
lthumb -5.12696 67.8981
rfemur -74.5915 8.14791 37.5104
rtibia 64.289
rfoot -20.2957 -12.6193
rtoes -20.0659
lfemur -78.7935 8.23632 -13.4146
ltibia 78.1373
lfoot -28.4616 12.8729
ltoes -4.40794
169
root -5.59711 13.3543 4.57748 164.793 -74.878 -133.389
lowerback 48.5709 3.89744 -5.549
upperback 16.7278 -1.61388 -3.08522
thorax -1.64142 -2.0413 -0.0854283
lowerneck -0.556252 10.5803 8.28122
upperneck -19.6697 13.145 -12.6677
head -4.31375 6.68283 -5.60089
rclavicle -2.22639e-014 -2.98177e-014
rhumerus -27.7491 8.45792 -88.4734
rradius 73.3982
rwrist -48.205
rhand -29.6206 13.3839
rfingers 7.12502
rthumb -2.95106 -16.5754
lclavicle -2.22639e-014 -2.98177e-014
lhumerus 59.4668 9.01904 60.9775
lradius 32.1722
lwrist 38.7065
lhand -32.5687 38.528
lfingers 7.12502
lthumb -5.79784 68.4287
rfemur -74.5076 8.12428 37.5467
rtibia 64.2844
rfoot -20.3195 -12.5933
rtoes -19.8057
lfemur -78.7159 8.23483 -13.371
ltibia 78.1158
lfoot -28.4639 12.8045
ltoes -4.27178
170
root -5.59096 13.357 4.57117 164.571 -74.9158 -133.268
lowerback 48.5315 3.78202 -5.5237
upperback 16.6858 -1.71749 -3.06784
thorax -1.68216 -2.08601 -0.0383766
lowerneck -0.244592 10.6613 8.32842
upperneck -19.9429 13.2791 -12.6332
head -4.43486 6.74697 -5.6319
rclavicle -1.17681e-013 -4.13472e-014
rhumerus -27.6304 8.53206 -88.5786
rradius 73.3359
rwrist -48.0828
rhand -29.6083 13.5242
rfingers 7.12502
rthumb -2.9392 -16.4353
lclavicle -1.17681e-013 -4.13472e-014
lhumerus 58.8713 9.01749 60.2636
lradius 32.1707
lwrist 39.387
lhand -33.2094 38.9506
lfingers 7.12502
lthumb -6.41635 68.8334
rfemur -74.3877 8.06984 37.6008
rtibia 64.2869
rfoot -20.3807 -12.5313
rtoes -19.465
lfemur -78.6084 8.20142 -13.3145
ltibia 78.0756
lfoot -28.4595 12.7646
ltoes -4.15898
171
root -5.58452 13.3613 4.56636 164.378 -74.9458 -133.2
lowerback 48.4798 3.66649 -5.51681
upperback 16.6537 -1.83044 -3.05409
thorax -1.70931 -2.13706 0.0163925
lowerneck 0.147464 10.7938 8.64205
upperneck -20.1589 13.4809 -12.8267
head -4.50543 6.84641 -5.77198
rclavicle -4.77083e-014 -5.20816e-014
rhumerus -27.5123 8.63449 -88.7065
rradius 73.2852
rwrist -47.9817
rhand -29.6522 13.6113
rfingers 7.12502
rthumb -2.98161 -16.3476
lclavicle -4.77083e-014 -5.20816e-014
lhumerus 58.0907 9.0257 59.5525
lradius 32.436
lwrist 40.0884
lhand -33.6932 39.3209
lfingers 7.12502
lthumb -6.88337 69.189
rfemur -74.2191 7.99282 37.669
rtibia 64.2752
rfoot -20.4351 -12.4714
rtoes -19.2749
lfemur -78.4568 8.14663 -13.2533
ltibia 78.0107
lfoot -28.4522 12.757
ltoes -4.08424
172
root -5.57797 13.3674 4.56252 164.252 -74.9615 -133.221
lowerback 48.4138 3.56544 -5.48023
upperback 16.646 -1.91701 -3.03483
thorax -1.70889 -2.17729 0.0530514
lowerneck 0.483674 10.934 9.09921
upperneck -20.254 13.6868 -13.1511
head -4.50573 6.94854 -5.96147
rclavicle 4.77083e-014 -3.75703e-014
rhumerus -27.3826 8.68183 -88.8099
rradius 73.26
rwrist -47.9153
rhand -29.7071 13.6064
rfingers 7.12502
rthumb -3.03457 -16.3518
lclavicle 4.77083e-014 -3.75703e-014
lhumerus 57.2199 8.98563 58.8874
lradius 32.9776
lwrist 40.8257
lhand -34.1414 39.5223
lfingers 7.12502
lthumb -7.31603 69.3758
rfemur -74.0007 7.90669 37.7397
rtibia 64.2251
rfoot -20.4544 -12.4242
rtoes -19.2473
lfemur -78.2564 8.07943 -13.1907
ltibia 77.9159
lfoot -28.4354 12.7826
ltoes -4.04143
173
root -5.57171 13.3758 4.55939 164.19 -74.9663 -133.331
lowerback 48.3317 3.5074 -5.41035
upperback 16.6752 -1.94066 -2.96607
thorax -1.66597 -2.19398 0.102802
lowerneck 0.708975 11.036 9.56767
upperneck -20.215 13.8311 -13.5183
head -4.44683 7.02216 -6.15033
rclavicle -1.27222e-013 -8.68689e-014
rhumerus -27.2269 8.65011 -88.8118
rradius 73.2644
rwrist -47.8892
rhand -29.7542 13.5448
rfingers 7.12502
rthumb -3.08011 -16.4127
lclavicle -1.27222e-013 -8.68689e-014
lhumerus 56.3333 8.85586 58.3242
lradius 33.7348
lwrist 41.527
lhand -34.4706 39.6972
lfingers 7.12502
lthumb -7.63378 69.5394
rfemur -73.7248 7.812 37.8013
rtibia 64.1177
rfoot -20.4282 -12.3794
rtoes -19.3087
lfemur -77.9942 7.99767 -13.1275
ltibia 77.7854
lfoot -28.4112 12.832
ltoes -3.98584
174
root -5.56579 13.3866 4.55676 164.196 -74.9645 -133.521
lowerback 48.2054 3.46125 -5.29655
upperback 16.7333 -1.93068 -2.88884
thorax -1.58705 -2.19565 0.128441
lowerneck 0.904457 11.0983 10.0143
upperneck -20.1065 13.924 -13.8602
head -4.37033 7.07056 -6.32287
rclavicle -2.22639e-014 5.86415e-014
rhumerus -27.0722 8.57525 -88.7849
rradius 73.282
rwrist -47.8746
rhand -29.7849 13.4427
rfingers 7.12502
rthumb -3.10978 -16.5143
lclavicle -2.22639e-014 5.86415e-014
lhumerus 55.4185 8.61811 57.712
lradius 34.6313
lwrist 42.225
lhand -34.6785 39.9332
lfingers 7.12502
lthumb -7.83452 69.768
rfemur -73.4109 7.71523 37.8434
rtibia 63.9467
rfoot -20.3526 -12.3289
rtoes -19.4108
lfemur -77.6867 7.90373 -13.0673
ltibia 77.6158
lfoot -28.3885 12.8819
ltoes -3.81793
175
root -5.55997 13.3994 4.55442 164.246 -74.9611 -133.745
lowerback 48.025 3.41116 -5.05796
upperback 16.8207 -1.86953 -2.80901
thorax -1.47454 -2.16844 0.080353
lowerneck 0.978581 11.0789 10.3324
upperneck -19.9086 13.9016 -14.0829
head -4.28028 7.05913 -6.42948
rclavicle 7.63333e-014 2.72335e-014
rhumerus -26.9254 8.37945 -88.7084
rradius 73.3041
rwrist -47.8524
rhand -29.8055 13.3228
rfingers 7.12502
rthumb -3.12961 -16.634
lclavicle 7.63333e-014 2.72335e-014
lhumerus 54.5554 8.17149 57.0784
lradius 35.547
lwrist 42.8538
lhand -34.8762 40.117
lfingers 7.12502
lthumb -8.0253 69.9447
rfemur -73.0861 7.61959 37.8675
rtibia 63.7172
rfoot -20.2362 -12.2605
rtoes -19.4938
lfemur -77.359 7.79951 -13.0048
ltibia 77.4028
lfoot -28.3822 12.9177
ltoes -3.50998
176
root -5.55413 13.415 4.55242 164.342 -74.9682 -134.003
lowerback 46.8306 3.24942 -4.66218
upperback 17.8103 -1.79423 -2.90236
thorax -1.2923 -2.14099 -0.0572925
lowerneck 1.05705 11.0189 10.5879
upperneck -19.7196 13.8338 -14.1883
head -4.21516 7.01987 -6.49406
rclavicle -8.90555e-014 3.77691e-015
rhumerus -26.8178 8.20063 -88.6974
rradius 73.3032
rwrist -47.8075
rhand -29.8415 13.2425
rfingers 7.12502
rthumb -3.16434 -16.7138
lclavicle -8.90555e-014 3.77691e-015
lhumerus 53.6603 7.61722 56.3407
lradius 36.4321
lwrist 43.3551
lhand -34.9957 40.354
lfingers 7.12502
lthumb -8.14061 70.1772
rfemur -72.7612 7.51597 37.8638
rtibia 63.4403
rfoot -20.1101 -12.1557
rtoes -19.501
lfemur -77.0138 7.67887 -12.9505
ltibia 77.1366
lfoot -28.3996 12.9406
ltoes -3.12168
